<svg id="Layer_1" data-name="Layer 1" xmlns="http://www.w3.org/2000/svg" viewBox="0 0 45 32"><defs><style>.cls-1{fill:#231f20;}</style></defs><title>Artboard 1</title><path class="cls-1" d="M16.47,17.85a7.53,7.53,0,0,0-1.86-.9,17.74,17.74,0,0,0-2.76-.69A19.53,19.53,0,0,0,8.48,16a19.53,19.53,0,0,0-3.37.28A17.72,17.72,0,0,0,2.35,17a7.51,7.51,0,0,0-1.86.9q-.68.48-.68.9V20.4q0,.41.68.9a7.5,7.5,0,0,0,1.86.9,17.66,17.66,0,0,0,2.76.69,19.48,19.48,0,0,0,3.37.28,19.48,19.48,0,0,0,3.37-.28,17.68,17.68,0,0,0,2.76-.69,7.51,7.51,0,0,0,1.86-.9q.68-.48.68-.9V18.75Q17.15,18.33,16.47,17.85Z"/><path class="cls-1" d="M13.87,28.51a22.58,22.58,0,0,1-2.54.52,19.27,19.27,0,0,1-2.84.21A20.94,20.94,0,0,1,5.64,29a16.69,16.69,0,0,1-2.54-.54,11.75,11.75,0,0,1-2-.72A4.56,4.56,0,0,1-.19,27v2.21q0,.41.66.91A6.79,6.79,0,0,0,2.32,31a17.62,17.62,0,0,0,2.74.71A18.9,18.9,0,0,0,8.48,32a18.63,18.63,0,0,0,3.4-.29A19,19,0,0,0,14.65,31a7.2,7.2,0,0,0,1.83-.91q.68-.5.68-.91V27a4.56,4.56,0,0,1-1.27.83A11.77,11.77,0,0,1,13.87,28.51Z"/><path class="cls-1" d="M13.87,24.1a22.58,22.58,0,0,1-2.54.52,19.27,19.27,0,0,1-2.84.21,20.94,20.94,0,0,1-2.84-.19A16.69,16.69,0,0,1,3.1,24.1a11.75,11.75,0,0,1-2-.72,4.56,4.56,0,0,1-1.27-.83v2.21q0,.41.66.91a6.79,6.79,0,0,0,1.85.91,17.56,17.56,0,0,0,2.74.71,18.86,18.86,0,0,0,3.42.29,18.58,18.58,0,0,0,3.4-.29,18.91,18.91,0,0,0,2.76-.71,7.2,7.2,0,0,0,1.83-.91q.68-.5.68-.91V22.54a4.56,4.56,0,0,1-1.27.83A11.77,11.77,0,0,1,13.87,24.1Z"/><path class="cls-1" d="M44.14,17.85a7.53,7.53,0,0,0-1.86-.9,17.73,17.73,0,0,0-2.76-.69,20.7,20.7,0,0,0-6.74,0A17.72,17.72,0,0,0,30,17a7.51,7.51,0,0,0-1.86.9q-.68.48-.68.9V20.4q0,.41.68.9a7.5,7.5,0,0,0,1.86.9,17.66,17.66,0,0,0,2.76.69,20.7,20.7,0,0,0,6.74,0,17.67,17.67,0,0,0,2.76-.69,7.51,7.51,0,0,0,1.86-.9q.68-.48.68-.9V18.75Q44.81,18.33,44.14,17.85Z"/><path class="cls-1" d="M41.53,24.1a22.58,22.58,0,0,1-2.54.52,19.27,19.27,0,0,1-2.84.21,20.94,20.94,0,0,1-2.84-.19,16.69,16.69,0,0,1-2.54-.54,11.75,11.75,0,0,1-2-.72,4.56,4.56,0,0,1-1.27-.83v2.21q0,.41.66.91a6.79,6.79,0,0,0,1.85.91,17.56,17.56,0,0,0,2.74.71,18.86,18.86,0,0,0,3.42.29,18.58,18.58,0,0,0,3.4-.29,18.91,18.91,0,0,0,2.76-.71,7.2,7.2,0,0,0,1.83-.91q.68-.5.68-.91V22.54a4.56,4.56,0,0,1-1.27.83A11.77,11.77,0,0,1,41.53,24.1Z"/><path class="cls-1" d="M41.53,28.51A22.58,22.58,0,0,1,39,29a19.27,19.27,0,0,1-2.84.21A20.94,20.94,0,0,1,33.3,29a16.69,16.69,0,0,1-2.54-.54,11.75,11.75,0,0,1-2-.72A4.56,4.56,0,0,1,27.47,27v2.21q0,.41.66.91A6.79,6.79,0,0,0,30,31a17.62,17.62,0,0,0,2.74.71,18.9,18.9,0,0,0,3.42.29,18.63,18.63,0,0,0,3.4-.29A19,19,0,0,0,42.31,31a7.2,7.2,0,0,0,1.83-.91q.68-.5.68-.91V27a4.56,4.56,0,0,1-1.27.83A11.77,11.77,0,0,1,41.53,28.51Z"/><path class="cls-1" d="M33.72,13.51,33,0,28.82,4.8Q25.07,1.41,21.71.94a8.42,8.42,0,0,0-5.89,1.14,10.8,10.8,0,0,0-4,4.78,16.2,16.2,0,0,0-1.4,7A15.66,15.66,0,0,1,12,9.76a7.19,7.19,0,0,1,2.85-3,6,6,0,0,1,4.2-.52,12.39,12.39,0,0,1,5.5,3.27l-4.17,4.8Z"/></svg>