<svg id="Layer_1" data-name="Layer 1" xmlns="http://www.w3.org/2000/svg" viewBox="0 0 38 32"><defs><style>.cls-1{fill:#231f20;}</style></defs><title>Artboard 1</title><path class="cls-1" d="M5.76,8.51a12.19,12.19,0,0,0,3,1.44A28.85,28.85,0,0,0,13.24,11a31.88,31.88,0,0,0,5.45.44A31.88,31.88,0,0,0,24.15,11a28.87,28.87,0,0,0,4.47-1.1,12.22,12.22,0,0,0,3-1.44q1.1-.77,1.1-1.44V4.42q0-.66-1.1-1.44a12.25,12.25,0,0,0-3-1.44A29,29,0,0,0,24.15.44,32,32,0,0,0,18.69,0a32,32,0,0,0-5.45.44,29,29,0,0,0-4.47,1.1A12.22,12.22,0,0,0,5.76,3q-1.1.77-1.1,1.44V7.07Q4.66,7.73,5.76,8.51Z"/><path class="cls-1" d="M31.63,15.49q1.1-.8,1.1-1.46V10.49a7.39,7.39,0,0,1-2.06,1.33A19.18,19.18,0,0,1,27.41,13a36.9,36.9,0,0,1-4.11.83,31.54,31.54,0,0,1-4.6.33,34.3,34.3,0,0,1-4.6-.3A27.29,27.29,0,0,1,10,13a19.16,19.16,0,0,1-3.26-1.16,7.39,7.39,0,0,1-2.06-1.33V14q0,.66,1.07,1.46a11,11,0,0,0,3,1.46,28.69,28.69,0,0,0,4.44,1.13,30.87,30.87,0,0,0,5.54.47,30.41,30.41,0,0,0,5.51-.47A30.9,30.9,0,0,0,28.67,17,11.72,11.72,0,0,0,31.63,15.49Z"/><path class="cls-1" d="M8.17,25.61a13.25,13.25,0,0,1-1.48.3A11.33,11.33,0,0,1,5,26a12.31,12.31,0,0,1-1.65-.11,9.8,9.8,0,0,1-1.48-.31,6.88,6.88,0,0,1-1.17-.42A2.65,2.65,0,0,1,0,24.72V26q0,.24.38.53A4,4,0,0,0,1.46,27a10.34,10.34,0,0,0,1.59.41,11.12,11.12,0,0,0,2,.17,11,11,0,0,0,2-.17A11.13,11.13,0,0,0,8.62,27a4.2,4.2,0,0,0,1.06-.53q.39-.29.39-.53V24.72a2.65,2.65,0,0,1-.74.48A6.89,6.89,0,0,1,8.17,25.61Z"/><path class="cls-1" d="M9.69,19.48A4.4,4.4,0,0,0,8.6,19a10.4,10.4,0,0,0-1.6-.4,11.48,11.48,0,0,0-2-.16,11.48,11.48,0,0,0-2,.16,10.39,10.39,0,0,0-1.6.4,4.39,4.39,0,0,0-1.08.52Q0,19.76,0,20v1q0,.24.39.52A4.38,4.38,0,0,0,1.48,22a10.36,10.36,0,0,0,1.6.4,11.46,11.46,0,0,0,2,.16,11.46,11.46,0,0,0,2-.16A10.37,10.37,0,0,0,8.6,22a4.39,4.39,0,0,0,1.08-.52q.39-.28.39-.52V20Q10.08,19.76,9.69,19.48Z"/><path class="cls-1" d="M8.17,23.07a13.25,13.25,0,0,1-1.48.3A11.33,11.33,0,0,1,5,23.49a12.32,12.32,0,0,1-1.65-.11,9.8,9.8,0,0,1-1.48-.31,6.89,6.89,0,0,1-1.17-.42A2.66,2.66,0,0,1,0,22.18v1.27q0,.24.38.53a4,4,0,0,0,1.07.53,10.31,10.31,0,0,0,1.59.41,11.09,11.09,0,0,0,2,.17,10.92,10.92,0,0,0,2-.17,11.1,11.1,0,0,0,1.6-.41A4.21,4.21,0,0,0,9.69,24q.39-.29.39-.53V22.18a2.65,2.65,0,0,1-.74.48A6.89,6.89,0,0,1,8.17,23.07Z"/><path class="cls-1" d="M35.51,23.07a13.25,13.25,0,0,1-1.48.3,11.32,11.32,0,0,1-1.65.12,12.32,12.32,0,0,1-1.65-.11,9.8,9.8,0,0,1-1.48-.31,6.88,6.88,0,0,1-1.17-.42,2.65,2.65,0,0,1-.74-.48v1.27q0,.24.38.53a4,4,0,0,0,1.07.53,10.31,10.31,0,0,0,1.59.41,11.09,11.09,0,0,0,2,.17,10.92,10.92,0,0,0,2-.17A11.11,11.11,0,0,0,36,24.5,4.21,4.21,0,0,0,37,24q.39-.29.39-.53V22.18a2.66,2.66,0,0,1-.74.48A6.89,6.89,0,0,1,35.51,23.07Z"/><path class="cls-1" d="M37,19.48A4.4,4.4,0,0,0,35.94,19a10.41,10.41,0,0,0-1.6-.4,12.17,12.17,0,0,0-3.92,0,10.4,10.4,0,0,0-1.6.4,4.39,4.39,0,0,0-1.08.52q-.39.28-.39.52v1q0,.24.39.52a4.38,4.38,0,0,0,1.08.52,10.36,10.36,0,0,0,1.6.4,12.18,12.18,0,0,0,3.92,0,10.37,10.37,0,0,0,1.6-.4A4.39,4.39,0,0,0,37,21.46q.39-.28.39-.52V20Q37.42,19.76,37,19.48Z"/><path class="cls-1" d="M35.51,25.61a13.25,13.25,0,0,1-1.48.3,11.33,11.33,0,0,1-1.65.12,12.31,12.31,0,0,1-1.65-.11,9.8,9.8,0,0,1-1.48-.31,6.87,6.87,0,0,1-1.17-.42,2.65,2.65,0,0,1-.74-.48V26q0,.24.38.53a4,4,0,0,0,1.07.53,10.33,10.33,0,0,0,1.59.41,11.12,11.12,0,0,0,2,.17,11,11,0,0,0,2-.17A11.14,11.14,0,0,0,36,27,4.21,4.21,0,0,0,37,26.51q.39-.29.39-.53V24.72a2.65,2.65,0,0,1-.74.48A6.89,6.89,0,0,1,35.51,25.61Z"/><path class="cls-1" d="M21.68,30a13.26,13.26,0,0,1-1.48.3,11.33,11.33,0,0,1-1.65.12,12.32,12.32,0,0,1-1.65-.11A9.8,9.8,0,0,1,15.42,30a6.89,6.89,0,0,1-1.17-.42,2.66,2.66,0,0,1-.74-.48v1.27q0,.24.38.53a4,4,0,0,0,1.07.53,10.35,10.35,0,0,0,1.59.41,11.11,11.11,0,0,0,2,.17,11,11,0,0,0,2-.17,11.15,11.15,0,0,0,1.6-.41,4.21,4.21,0,0,0,1.06-.53q.39-.29.39-.53V29.1a2.66,2.66,0,0,1-.74.48A6.9,6.9,0,0,1,21.68,30Z"/><path class="cls-1" d="M23.19,23.87a4.4,4.4,0,0,0-1.08-.52,10.42,10.42,0,0,0-1.6-.4,12.18,12.18,0,0,0-3.92,0,10.41,10.41,0,0,0-1.6.4,4.39,4.39,0,0,0-1.08.52q-.39.28-.39.52v1q0,.24.39.52a4.38,4.38,0,0,0,1.08.52,10.36,10.36,0,0,0,1.6.4,12.17,12.17,0,0,0,3.92,0,10.37,10.37,0,0,0,1.6-.4,4.39,4.39,0,0,0,1.08-.52q.39-.28.39-.52v-1Q23.59,24.14,23.19,23.87Z"/><path class="cls-1" d="M21.68,27.46a13.3,13.3,0,0,1-1.48.3,11.33,11.33,0,0,1-1.65.12,12.32,12.32,0,0,1-1.65-.11,9.81,9.81,0,0,1-1.48-.31A6.89,6.89,0,0,1,14.24,27a2.65,2.65,0,0,1-.74-.48v1.27q0,.24.38.53a4,4,0,0,0,1.07.53,10.31,10.31,0,0,0,1.59.41,11.09,11.09,0,0,0,2,.17,10.93,10.93,0,0,0,2-.17,11.11,11.11,0,0,0,1.6-.41,4.21,4.21,0,0,0,1.06-.53q.39-.29.39-.53V26.56a2.65,2.65,0,0,1-.74.48A6.9,6.9,0,0,1,21.68,27.46Z"/></svg>