<svg id="Layer_1" data-name="Layer 1" xmlns="http://www.w3.org/2000/svg" viewBox="0 0 33 32"><defs><style>.cls-1{fill:#231f20;}</style></defs><title>Artboard 1</title><path class="cls-1" d="M9.67,20.23a3.57,3.57,0,0,1-.5-.93,3.9,3.9,0,0,1,.19-3.25c-.13-1.31-.28-4.06,1.47-6a5.52,5.52,0,0,1,2.52-1.57,2,2,0,0,0-.24-2.21c0-.8,1.16-6.26-4.5-6.26S4.07,5.47,4.11,6.27c-.9.76-.34,2.91.55,2.91A7.24,7.24,0,0,0,6.53,12.7s0,1.42-.53,1.51c-1.68.27-6,3-6,6H9.67Z"/><path class="cls-1" d="M18.79,25.37c-.57-.09-.59-1.66-.59-1.66a8,8,0,0,0,2.06-3.89c1,0,1.6-2.37.61-3.21,0-.88,1.27-6.9-5-6.9s-5,6-5,6.9c-1,.83-.38,3.21.61,3.21a8,8,0,0,0,2.06,3.89s0,1.57-.59,1.66c-1.85.29-8.78,3.32-8.78,6.64H27.57C27.57,28.69,20.64,25.66,18.79,25.37Z"/><path class="cls-1" d="M15.91,9.7c6.24,0,5,6,5,6.9,1,.83.38,3.21-.61,3.21a8,8,0,0,1-2.06,3.89s0,1.57.59,1.66c1.85.29,8.77,3.32,8.77,6.64H4.25c0-3.32,6.92-6.35,8.78-6.64.58-.09.59-1.66.59-1.66a8,8,0,0,1-2.06-3.89c-1,0-1.6-2.37-.61-3.21,0-.88-1.27-6.9,5-6.9"/><path class="cls-1" d="M21,10.14c1.75,2,1.6,4.7,1.47,6a3.9,3.9,0,0,1,.19,3.25,3.14,3.14,0,0,1-1.06,1.5,9.61,9.61,0,0,1-1.69,3.19l.16.05H32c0-3.21-4.54-6.14-6.33-6.42-.56-.09-.57-1.61-.57-1.61a7.72,7.72,0,0,0,2-3.77c1,0,1.55-2.3.59-3.1,0-.85,1.23-6.67-4.8-6.67-5,0-5,4-4.88,5.87A5.66,5.66,0,0,1,21,10.14Z"/></svg>