<?xml version="1.0" encoding="utf-8"?>
<!-- Generator: Adobe Illustrator 18.1.1, SVG Export Plug-In . SVG Version: 6.00 Build 0)  -->
<!DOCTYPE svg PUBLIC "-//W3C//DTD SVG 1.1//EN" "http://www.w3.org/Graphics/SVG/1.1/DTD/svg11.dtd">
<svg version="1.1" id="Reports-History" xmlns="http://www.w3.org/2000/svg" xmlns:xlink="http://www.w3.org/1999/xlink" x="0px"
	 y="0px" viewBox="0 0 32 32" enable-background="new 0 0 32 32" xml:space="preserve">
<path fill="#231F20" d="M16,0C7.2,0,0,7.2,0,16c0,8.8,7.2,16,16,16s16-7.2,16-16C32,7.2,24.8,0,16,0z M18,26h-4v-4h4V26z M20.7,15.8
	c-1.2,0.9-2.7,1.6-2.7,3.2V20h-4v-1.1c0-2.4,1.4-3.4,2.5-4.3c1.1-0.9,2.1-1.5,2.1-2.9c0-1.7-0.9-2.4-2.4-2.4c-2,0-2.8,1.8-2.9,3.8
	H9.4c0.1-4,2.7-7,6.7-7c5.2,0,6.9,3.1,6.9,5.3C23,13.9,21.9,14.9,20.7,15.8z"/>
</svg>
