<svg id="Layer_1" data-name="Layer 1" xmlns="http://www.w3.org/2000/svg" viewBox="0 0 38 32"><defs><style>.cls-1{fill:#231f20;}</style></defs><title>Artboard 1</title><polygon class="cls-1" points="32.01 17.38 32.01 12.78 31.58 12.36 31.56 12.34 30.35 13.46 30.35 15.72 27.91 15.72 26.13 17.38 32.01 17.38"/><path class="cls-1" d="M25,15.72H1.66V1.66H30.35v9.07l.28-.26.7-.65.14-.17A4.84,4.84,0,0,1,32,9.12V0H0V17.38H23.19Z"/><rect class="cls-1" x="3.8" y="4.69" width="14.04" height="1.79" transform="translate(21.64 11.17) rotate(180)"/><rect class="cls-1" x="21.46" y="4.69" width="6.14" height="1.79" transform="translate(49.05 11.17) rotate(180)"/><rect class="cls-1" x="3.8" y="7.79" width="23.79" height="1.79" transform="translate(31.4 17.38) rotate(180)"/><rect class="cls-1" x="3.8" y="10.97" width="11.17" height="1.79" transform="translate(18.78 23.72) rotate(180)"/><polygon class="cls-1" points="18 24.94 22 28.94 36 15.94 32 11.94 18 24.94"/><polygon class="cls-1" points="14.99 31.94 20.99 29.94 16.99 25.94 14.99 31.94"/><path class="cls-1" d="M35.17,9.94a2.82,2.82,0,0,0-2.16,1l4,4a2.84,2.84,0,0,0-1.83-5Z"/></svg>