<svg id="Layer_1" data-name="Layer 1" xmlns="http://www.w3.org/2000/svg" viewBox="0 0 32 32"><defs><style>.cls-1{fill:#231f20;}</style></defs><title>Artboard 1</title><path class="cls-1" d="M27.26,5H4.74A4.74,4.74,0,0,0,0,9.74v.08a4.75,4.75,0,0,0,4.74,4.74H27.26A4.75,4.75,0,0,0,32,9.82V9.74A4.75,4.75,0,0,0,27.26,5ZM5.4,12.15A2.29,2.29,0,1,1,7.69,9.86,2.29,2.29,0,0,1,5.4,12.15Z"/><path class="cls-1" d="M27.26,27.44H4.74A4.75,4.75,0,0,1,0,22.7v-.08a4.75,4.75,0,0,1,4.74-4.74H27.26A4.75,4.75,0,0,1,32,22.62v.08A4.75,4.75,0,0,1,27.26,27.44ZM4.74,19.55a3.08,3.08,0,0,0-3.08,3.08v.08a3.08,3.08,0,0,0,3.08,3.08H27.26a3.08,3.08,0,0,0,3.08-3.08v-.08a3.08,3.08,0,0,0-3.08-3.08Z"/><circle class="cls-1" cx="26.6" cy="22.73" r="2.29"/></svg>