<?xml version="1.0" encoding="utf-8"?>
<!-- Generator: Adobe Illustrator 18.1.1, SVG Export Plug-In . SVG Version: 6.00 Build 0)  -->
<!DOCTYPE svg PUBLIC "-//W3C//DTD SVG 1.1//EN" "http://www.w3.org/Graphics/SVG/1.1/DTD/svg11.dtd">
<svg version="1.1" id="Reports-History" xmlns="http://www.w3.org/2000/svg" xmlns:xlink="http://www.w3.org/1999/xlink" x="0px"
	 y="0px" viewBox="0 0 36.5 32" enable-background="new 0 0 36.5 32" xml:space="preserve">
<g>
	<path fill="#231F20" d="M1.3,22.3l2.1-1c-0.5-1.2-0.8-2.3-0.9-3.6l-2.3,0.1C0.2,19.5,0.6,20.9,1.3,22.3z"/>
	<path fill="#231F20" d="M7.8,29.9c1.7,1,3.5,1.7,5.6,2.1l0.9-2.2c-1.8-0.2-3.5-0.8-5-1.6L7.8,29.9z"/>
	<path fill="#231F20" d="M4.5,23.6l-2.1,1c0.9,1.5,1.9,2.8,3.3,3.8l1.5-1.7C6.1,25.8,5.1,24.7,4.5,23.6z"/>
	<path fill="#231F20" d="M32,16.1C32,7.3,24.9,0,16,0C7.4,0,0.5,6.8,0,15.2l2.3-0.1C2.9,7.9,8.7,2.3,16,2.3
		c7.7,0,13.7,6.2,13.7,13.8h-4.6l5.7,6.9l5.7-6.9H32z"/>
</g>
</svg>
