<?xml version="1.0" encoding="utf-8"?>
<!-- Generator: Adobe Illustrator 18.1.1, SVG Export Plug-In . SVG Version: 6.00 Build 0)  -->
<!DOCTYPE svg PUBLIC "-//W3C//DTD SVG 1.1//EN" "http://www.w3.org/Graphics/SVG/1.1/DTD/svg11.dtd">
<svg version="1.1" id="Reports-XXX" xmlns="http://www.w3.org/2000/svg" xmlns:xlink="http://www.w3.org/1999/xlink" x="0px"
	 y="0px" viewBox="0 0 46 32" enable-background="new 0 0 46 32" xml:space="preserve">
<g>
	<polygon fill="#231F20" points="25,30 2,30 2,2 20,2 20,8 26,8 26,17 28,17 28,8 20,0 0,0 0,32 25,32 	"/>
	<rect x="5" y="23" fill="#231F20" width="3" height="4"/>
	<rect x="10" y="20" fill="#231F20" width="3" height="7"/>
	<rect x="15" y="17" fill="#231F20" width="3" height="10"/>
	<rect x="20" y="15" fill="#231F20" width="3" height="12"/>
</g>
<path fill="#231F20" d="M33,19.1c3.3,0,6,1.1,6,1.9v1.1c0,0.7-2.7,1.9-6,1.9c-3.3,0-6-1.1-6-1.9V21C27,20.2,29.7,19.1,33,19.1
	 M38.9,26.5c-0.7,0.7-3.3,1.5-6,1.5c-2.7,0-5.2-0.8-6-1.5V28c0,0.7,2.6,1.9,6,1.9c3.4,0,6-1.2,6-1.9V26.5z M38.9,23.5
	c-0.7,0.7-3.3,1.5-6,1.5c-2.7,0-5.2-0.8-6-1.5V25c0,0.7,2.6,1.9,6,1.9c3.4,0,6-1.2,6-1.9V23.5z"/>
</svg>
