<?xml version="1.0" encoding="utf-8"?>
<!-- Generator: Adobe Illustrator 18.1.1, SVG Export Plug-In . SVG Version: 6.00 Build 0)  -->
<!DOCTYPE svg PUBLIC "-//W3C//DTD SVG 1.1//EN" "http://www.w3.org/Graphics/SVG/1.1/DTD/svg11.dtd">
<svg version="1.1" id="Reports-Audit_Log" xmlns="http://www.w3.org/2000/svg" xmlns:xlink="http://www.w3.org/1999/xlink" x="0px"
	 y="0px" viewBox="0 0 46 32" enable-background="new 0 0 46 32" xml:space="preserve">
<g>
	<path fill="#231F20" d="M25.1,30H2V2h18v6h6v9.2c0.6-0.7,1.3-1.3,2-1.7V8l-8-8H0v32h26.7C26.1,31.4,25.5,30.7,25.1,30z"/>
	<rect x="5" y="23" fill="#231F20" width="3" height="4"/>
	<rect x="10" y="20" fill="#231F20" width="3" height="7"/>
	<rect x="15" y="17" fill="#231F20" width="3" height="10"/>
	<rect x="20" y="15" fill="#231F20" width="3" height="12"/>
</g>
<path fill="#231F20" d="M35.4,21.9h-0.2v-2.4c0-1.3-1.1-2.4-2.4-2.4h-1.6c-1.3,0-2.4,1.1-2.4,2.4v2.4h-0.2c-0.3,0-0.6,0.3-0.6,0.6
	v5.9c0,0.3,0.3,0.6,0.6,0.6h6.8c0.3,0,0.6-0.3,0.6-0.6v-5.9C36,22.1,35.7,21.9,35.4,21.9z M32.8,27.4h-1.6l0.3-1.7
	c-0.2-0.1-0.3-0.4-0.3-0.7c0-0.4,0.4-0.8,0.8-0.8c0.4,0,0.8,0.4,0.8,0.8c0,0.3-0.1,0.5-0.3,0.7L32.8,27.4z M33.6,21.9h-3.2v-2.4
	c0-0.4,0.4-0.8,0.8-0.8h1.6c0.4,0,0.8,0.4,0.8,0.8V21.9z"/>
</svg>
