<?xml version="1.0" encoding="utf-8"?>
<!-- Generator: Adobe Illustrator 18.1.1, SVG Export Plug-In . SVG Version: 6.00 Build 0)  -->
<!DOCTYPE svg PUBLIC "-//W3C//DTD SVG 1.1//EN" "http://www.w3.org/Graphics/SVG/1.1/DTD/svg11.dtd">
<svg version="1.1" id="Layer_1" xmlns="http://www.w3.org/2000/svg" xmlns:xlink="http://www.w3.org/1999/xlink" x="0px" y="0px"
	 viewBox="0 0 64 64" enable-background="new 0 0 64 64" xml:space="preserve">
<g>
	<path d="M9.8,47.6h6.4v-7.7H9.8V47.6z M18.5,47.6h6.4V35.8h-6.4V47.6z M27.1,47.6h6.4V33.8h-6.4C27.1,33.8,27.1,47.6,27.1,47.6z
		 M35.6,47.6h6.2V27.7h-6.2C35.6,27.7,35.6,47.6,35.6,47.6z"/>
</g>
<path d="M42.6,53.2h-39V3.6h32.6v10.9h9.7v20.7c1.2-1.2,2.4-2.3,3.6-3.3V13.4L36.6,0H0v56.8h43.6C43.1,55.6,42.9,54.4,42.6,53.2z"/>
<path d="M62.6,45.4h-0.4v-4.3c0-2.4-1.9-4.3-4.3-4.3H55c-2.4,0-4.3,1.9-4.3,4.3v4.3h-0.4c-0.6,0-1.1,0.5-1.1,1.1v11
	c0,0.6,0.5,1.1,1.1,1.1h12.4c0.6,0,1.1-0.5,1.1-1.1v-11C63.7,45.9,63.2,45.4,62.6,45.4z M57.8,55.7h-2.9l0.6-3.1
	c-0.4-0.2-0.6-0.7-0.6-1.2c0-0.8,0.6-1.4,1.4-1.4c0.8,0,1.4,0.6,1.4,1.4c0,0.5-0.2,1-0.6,1.2L57.8,55.7z M59.2,45.4h-5.9v-4.3
	c0-0.8,0.6-1.4,1.4-1.4h2.9c0.8,0,1.4,0.6,1.4,1.4L59.2,45.4L59.2,45.4z"/>
</svg>
