<?xml version="1.0" encoding="utf-8"?>
<!-- Generator: Adobe Illustrator 18.1.1, SVG Export Plug-In . SVG Version: 6.00 Build 0)  -->
<!DOCTYPE svg PUBLIC "-//W3C//DTD SVG 1.1//EN" "http://www.w3.org/Graphics/SVG/1.1/DTD/svg11.dtd">
<svg version="1.1" id="Reports-History" xmlns="http://www.w3.org/2000/svg" xmlns:xlink="http://www.w3.org/1999/xlink" x="0px"
	 y="0px" viewBox="0 0 46 32" enable-background="new 0 0 46 32" xml:space="preserve">
<g>
	<path fill="#231F20" d="M25.1,30H2V2h18v6h6v9.2c0.6-0.7,1.3-1.3,2-1.7V8l-8-8H0v32h26.7C26.1,31.4,25.5,30.7,25.1,30z"/>
	<rect x="5" y="23" fill="#231F20" width="3" height="4"/>
	<rect x="10" y="20" fill="#231F20" width="3" height="7"/>
	<rect x="15" y="17" fill="#231F20" width="3" height="10"/>
	<rect x="20" y="15" fill="#231F20" width="3" height="12"/>
</g>
<g>
	<polygon fill="#231F20" points="35.5,24.1 35.5,19.8 33.9,19.8 33.9,25.7 38.7,25.7 38.7,24.1 	"/>
	<path fill="#231F20" d="M35.2,16.5c-4.2,0-7.6,3.3-7.8,7.5H25l3.2,3.9l3.2-3.9H29c0.1-3.3,2.9-5.9,6.2-5.9c3.4,0,6.2,2.8,6.2,6.2
		c0,3.4-2.8,6.2-6.2,6.2H35V32h0.2c4.3,0,7.8-3.5,7.8-7.8S39.5,16.5,35.2,16.5z"/>
</g>
</svg>
