<?xml version="1.0" encoding="utf-8"?>
<!-- Generator: Adobe Illustrator 18.1.1, SVG Export Plug-In . SVG Version: 6.00 Build 0)  -->
<!DOCTYPE svg PUBLIC "-//W3C//DTD SVG 1.1//EN" "http://www.w3.org/Graphics/SVG/1.1/DTD/svg11.dtd">
<svg version="1.1" id="Layer_1" xmlns="http://www.w3.org/2000/svg" xmlns:xlink="http://www.w3.org/1999/xlink" x="0px" y="0px"
	 viewBox="0 0 64 64" enable-background="new 0 0 64 64" xml:space="preserve">
<path d="M7.6,40.1h5.3v-6.3H7.6V40.1z M14.7,40.1H20v-9.7h-5.3V40.1z M21.7,40.1H27V28.7h-5.3V40.1z M28.8,40.1h5.1V23.7h-5.1V40.1z
	"/>
<path d="M35.2,44.3H3.1V3.2h26.4V12h8.8v22.9c0.7-0.3,1.4-0.5,2.3-0.5c0.2,0,0.4,0,0.6,0V12L29.6,0.2H0.2v47H37
	C36.2,46.5,35.6,45.5,35.2,44.3z"/>
<circle cx="50.8" cy="41.7" r="2.8"/>
<circle cx="41.9" cy="41.7" r="2.8"/>
<circle cx="59.6" cy="41.7" r="2.8"/>
</svg>
