<?xml version="1.0" encoding="utf-8"?>
<!-- Generator: Adobe Illustrator 18.1.1, SVG Export Plug-In . SVG Version: 6.00 Build 0)  -->
<!DOCTYPE svg PUBLIC "-//W3C//DTD SVG 1.1//EN" "http://www.w3.org/Graphics/SVG/1.1/DTD/svg11.dtd">
<svg version="1.1" id="Layer_1" xmlns="http://www.w3.org/2000/svg" xmlns:xlink="http://www.w3.org/1999/xlink" x="0px" y="0px"
	 viewBox="0 0 64 64" enable-background="new 0 0 64 64" xml:space="preserve">
<g>
	<polygon points="34.7,44 2.9,44 2.9,2.9 29.3,2.9 29.3,11.7 38.1,11.7 38.1,28.2 41,28.2 41,11.7 29.3,0 0,0 0,46.9 34.7,46.9 	"/>
	<path d="M7.4,39.7h5.3v-6.3H7.4V39.7z M14.4,39.7h5.3v-9.7h-5.3V39.7z M21.5,39.7h5.3V28.4h-5.3V39.7z M28.6,39.7h5.1V23.4h-5.1
		V39.7z"/>
</g>
<g>
	<path d="M40.3,33.1h5.4c3.3,0,5.7,2,5.7,6.2c0,3.6-1.9,6.3-5.7,6.3h-5.4V33.1z M43.1,43.4h2.5c1.6,0,3.1-1,3.1-3.8
		c0-2.5-0.9-4.1-3.6-4.1h-2V43.4z"/>
	<path d="M53.3,33.1h9.4v2.3h-6.6v2.7h6.1v2.1h-6.1v3.1h6.8v2.3h-9.5V33.1z"/>
</g>
</svg>
