<?xml version="1.0" encoding="utf-8"?>
<!-- Generator: Adobe Illustrator 18.1.1, SVG Export Plug-In . SVG Version: 6.00 Build 0)  -->
<!DOCTYPE svg PUBLIC "-//W3C//DTD SVG 1.1//EN" "http://www.w3.org/Graphics/SVG/1.1/DTD/svg11.dtd">
<svg version="1.1" id="Reports-Summary" xmlns="http://www.w3.org/2000/svg" xmlns:xlink="http://www.w3.org/1999/xlink" x="0px"
	 y="0px" viewBox="0 0 46 32" enable-background="new 0 0 46 32" xml:space="preserve">
<g>
	<path fill="#231F20" d="M25.1,30H2V2h18v6h6v9.2c0.6-0.7,1.3-1.3,2-1.7V8l-8-8H0v32h26.7C26.1,31.4,25.5,30.7,25.1,30z"/>
	<rect x="5" y="23" fill="#231F20" width="3" height="4"/>
	<rect x="10" y="20" fill="#231F20" width="3" height="7"/>
	<rect x="15" y="17" fill="#231F20" width="3" height="10"/>
	<rect x="20" y="15" fill="#231F20" width="3" height="12"/>
</g>
<path fill="#231F20" d="M32.9,27c0.2-0.1,0.4-0.1,0.5-0.3c0.1-0.1,0.3-0.3,0.4-0.4c0.1-0.2,0.1-0.4,0.1-0.6c0-0.4-0.1-0.7-0.4-0.8
	c-0.2-0.2-0.6-0.4-1.2-0.5v2.7C32.6,27.1,32.8,27.1,32.9,27 M31.1,19.8c-0.2,0-0.3,0.1-0.4,0.2c-0.1,0.1-0.2,0.2-0.3,0.4
	c-0.1,0.1-0.1,0.3-0.1,0.5c0,0.3,0.1,0.6,0.3,0.7c0.2,0.2,0.5,0.3,1,0.4v-2.3C31.4,19.8,31.2,19.8,31.1,19.8 M30.5,26.5
	c0.3,0.3,0.7,0.5,1.1,0.6v-3c0,0-0.1,0-0.2-0.1c-0.1,0-0.2,0-0.3-0.1c-0.4-0.1-0.7-0.2-1-0.3c-0.3-0.1-0.7-0.3-0.9-0.5
	c-0.3-0.2-0.5-0.5-0.7-0.8c-0.2-0.3-0.2-0.7-0.2-1.2c0-0.5,0.1-0.9,0.3-1.3c0.2-0.4,0.4-0.7,0.7-0.9c0.3-0.3,0.7-0.4,1.1-0.6
	c0.4-0.1,0.8-0.2,1.2-0.3V17h0.8v1.1c0.4,0,0.8,0.1,1.2,0.3c0.4,0.1,0.7,0.3,1,0.6c0.3,0.2,0.5,0.5,0.7,0.9c0.2,0.4,0.3,0.8,0.3,1.3
	h-2c0-0.4-0.1-0.7-0.4-1c-0.2-0.3-0.5-0.4-0.8-0.4v2.5c0.1,0,0.2,0.1,0.4,0.1c0.1,0,0.2,0.1,0.4,0.1c0.7,0.2,1.3,0.4,1.6,0.7
	c0.4,0.3,0.7,0.6,0.8,0.9c0.2,0.3,0.3,0.6,0.3,0.9c0,0.3,0.1,0.6,0.1,0.8c0,0.2-0.1,0.5-0.2,0.8c-0.1,0.3-0.3,0.6-0.6,0.9
	c-0.3,0.3-0.6,0.6-1.1,0.8c-0.5,0.2-1,0.4-1.8,0.4V30h-0.8v-1.2c-1.1-0.1-1.9-0.4-2.5-1c-0.6-0.6-1-1.4-1-2.6h2
	C30,25.8,30.2,26.2,30.5,26.5"/>
</svg>
