<?xml version="1.0" encoding="utf-8"?>
<!-- Generator: Adobe Illustrator 18.1.1, SVG Export Plug-In . SVG Version: 6.00 Build 0)  -->
<!DOCTYPE svg PUBLIC "-//W3C//DTD SVG 1.1//EN" "http://www.w3.org/Graphics/SVG/1.1/DTD/svg11.dtd">
<svg version="1.1" id="Layer_1" xmlns="http://www.w3.org/2000/svg" xmlns:xlink="http://www.w3.org/1999/xlink" x="0px" y="0px"
	 viewBox="0 0 64 64" enable-background="new 0 0 64 64" xml:space="preserve">
<g>
	<path d="M8.1,39.4h5.3V33H8.1V39.4z M15.3,39.4h5.3v-9.8h-5.3V39.4z M22.4,39.4h5.3V28h-5.3C22.4,28,22.4,39.4,22.4,39.4z
		 M29.5,39.4h5.1V22.9h-5.1C29.5,22.9,29.5,39.4,29.5,39.4z"/>
</g>
<path d="M35.3,44H3V3h27v9h8v17.1c1-1,2-1.9,3-2.7V11.1L30.3,0H0v47h36.1C35.7,46,35.5,45,35.3,44z"/>
<g>
	<polygon points="50.2,32.8 50.2,41.8 57.5,41.8 57.5,39.2 52.7,39.2 52.7,32.8 	"/>
	<path d="M52.3,28.2c-6.2,0-11.3,4.9-11.6,11.1h-3.8l5.1,6.1l5.1-6.1h-3.8c0.3-4.8,4.1-8.5,9-8.5c5,0,9,4,9,9s-4,9-9,9h-0.5v2.6h0.5
		c6.4,0,11.6-5.2,11.6-11.6S58.7,28.2,52.3,28.2z"/>
</g>
</svg>
